# xmcd
#
# Track frame offsets:
#	183
#	33110
#	57980
#	81108
#	114618
#	155200
#
# Disc length: 2272 seconds
#
# Revision: 0
# Processed by: cddbd v1.5.1PL0 Copyright (c) Steve Scherf et al.
# Submitted via: dBpowerAMP V4.0
#
DISCID=4708de06
DTITLE=Blue Mitchel - Graffiti Blues
DYEAR=1991
DGENRE=Blues
TTITLE0=Graffiti Blues
TTITLE1=Yeah Ya Right
TTITLE2=Express
TTITLE3=Asso-Kam
TTITLE4=Dorado
TTITLE5=Alone Again, Naturally
EXTD=Musical Heritage Society\nLicensed from Mainstream Records
EXTT0=
EXTT1=
EXTT2=
EXTT3=
EXTT4=
EXTT5=
PLAYORDER=
